<?xml version="1.0" encoding="utf-8"?>
<!-- Generator: Adobe Illustrator 22.1.0, SVG Export Plug-In . SVG Version: 6.00 Build 0)  -->
<svg version="1.1" id="Capa_1" xmlns="http://www.w3.org/2000/svg" xmlns:xlink="http://www.w3.org/1999/xlink" x="0px" y="0px"
	 viewBox="0 0 326.5 227.1" style="enable-background:new 0 0 326.5 227.1;" xml:space="preserve">
<style type="text/css">
	.st0{fill:#FFF9E8;}
</style>
<g>
	<circle class="st0" cx="197.8" cy="12.7" r="12.7"/>
	<circle class="st0" cx="89.3" cy="214.5" r="12.7"/>
	<path class="st0" d="M317,94.2c6-7.8,9.5-17.6,9.5-28.2c0-25.8-20.9-46.8-46.8-46.8c-12.3,0-23.5,4.7-31.8,12.5l0,0l0,0
		c-0.8,0.8-1.6,1.6-2.4,2.4l-91.7,91.7c-0.5,0.4-0.9,0.9-1.3,1.3l0,0l0,0c-8.1,8.4-13.1,19.8-13.1,32.4c0,25.8,20.9,46.8,46.8,46.8
		c11.3,0,21.7-4,29.8-10.7l0,0l0,0c2.3-1.9,4.4-4.1,6.4-6.4l85.8-86.1C311.4,100.6,314.4,97.6,317,94.2L317,94.2L317,94.2z"/>
	<path class="st0" d="M177.6,94.2c6-7.8,9.5-17.6,9.5-28.2c0-25.8-20.9-46.8-46.8-46.8c-12.3,0-23.5,4.7-31.8,12.5l0,0l0,0
		c-0.8,0.8-1.6,1.6-2.4,2.4l-91.7,91.7c-0.5,0.4-0.9,0.9-1.3,1.3l0,0l0,0C5,135.5,0,146.9,0,159.5c0,25.8,20.9,46.8,46.8,46.8
		c11.3,0,21.7-4,29.8-10.7l0,0l0,0c2.3-1.9,4.4-4.1,6.4-6.4l85.8-86.1C172.1,100.6,175.1,97.6,177.6,94.2L177.6,94.2L177.6,94.2z"/>
</g>
<image style="overflow:visible;" width="327" height="226" xlink:href="9B8EDF2A.jpg"  transform="matrix(0.9999 0 0 0.9999 -8058.54 -8078.3335)">
</image>
</svg>
