<svg version="1.1" id="Capa_1" xmlns="http://www.w3.org/2000/svg" xmlns:xlink="http://www.w3.org/1999/xlink" x="0" y="0" viewBox="0 0 326.5 227.1" xml:space="preserve"><style>.st0{fill:#fff9e8}</style><circle class="st0" cx="197.8" cy="12.7" r="12.7"/><circle class="st0" cx="89.3" cy="214.5" r="12.7"/><path class="st0" d="M317 94.2c6-7.8 9.5-17.6 9.5-28.2 0-25.8-20.9-46.8-46.8-46.8-12.3 0-23.5 4.7-31.8 12.5l-2.4 2.4-91.7 91.7c-.5.4-.9.9-1.3 1.3-8.1 8.4-13.1 19.8-13.1 32.4 0 25.8 20.9 46.8 46.8 46.8 11.3 0 21.7-4 29.8-10.7 2.3-1.9 4.4-4.1 6.4-6.4l85.8-86.1c3.2-2.5 6.2-5.5 8.8-8.9zm-139.4 0c6-7.8 9.5-17.6 9.5-28.2 0-25.8-20.9-46.8-46.8-46.8-12.3 0-23.5 4.7-31.8 12.5l-2.4 2.4-91.7 91.7c-.5.4-.9.9-1.3 1.3C5 135.5 0 146.9 0 159.5c0 25.8 20.9 46.8 46.8 46.8 11.3 0 21.7-4 29.8-10.7 2.3-1.9 4.4-4.1 6.4-6.4l85.8-86.1c3.3-2.5 6.3-5.5 8.8-8.9z"/><image width="327" height="226" xlink:href="9B8EDF2A.jpg" transform="translate(-8058.54 -8078.333) scale(.9999)" overflow="visible"/></svg>